<svg width="18" height="19" viewBox="0 0 18 19" fill="none" xmlns="http://www.w3.org/2000/svg">
<path d="M9 0.480436C7.23109 0.480436 5.58197 0.996546 4.18942 1.88182L2.3076 0V5.27236H7.57997L5.48706 3.17945C6.52778 2.59462 7.72364 2.25655 9 2.25655C12.9832 2.25655 16.2239 5.4972 16.2239 9.48076C16.2239 10.4295 16.0351 11.3344 15.7006 12.1651L17.2512 13.069C17.7323 11.9684 18 10.7558 18 9.48076C18 4.518 13.9624 0.480436 9 0.480436V0.480436Z" fill="white"/>
<path d="M12.5107 15.7795C11.4703 16.364 10.2767 16.7047 9.00033 16.7047C5.01709 16.7047 1.77644 13.464 1.77644 9.48078C1.77644 8.58438 1.94793 7.72987 2.24738 6.93754L0.699055 6.00449C0.249055 7.075 0 8.24892 0 9.48078C0 14.4435 4.03724 18.4808 9 18.4808C10.7692 18.4808 12.4148 17.9624 13.808 17.0771L15.6924 18.9619V13.6889H10.4197L12.5107 15.7795V15.7795Z" fill="white"/>
</svg>
